<?xml version="1.0" standalone="no"?>
<!DOCTYPE svg PUBLIC "-//W3C//DTD SVG 20010904//EN"
 "http://www.w3.org/TR/2001/REC-SVG-20010904/DTD/svg10.dtd">
<svg version="1.0" xmlns="http://www.w3.org/2000/svg"
 width="369.000000pt" height="369.000000pt" viewBox="0 0 369.000000 369.000000"
 preserveAspectRatio="xMidYMid meet">
<metadata>
Created by potrace 1.11, written by Peter Selinger 2001-2013
</metadata>
<g transform="translate(0.000000,369.000000) scale(0.100000,-0.100000)"
fill="#000000" stroke="none">
<path d="M1750 3140 c-19 -10 -46 -25 -60 -32 -27 -14 -56 -38 -45 -38 3 0 -4
-11 -17 -25 -44 -46 -50 -60 -51 -102 -1 -13 -4 -23 -7 -23 -11 0 -11 -61 0
-103 16 -62 52 -133 74 -143 10 -5 18 -13 17 -18 -3 -12 79 -52 139 -67 40
-10 60 -10 95 -1 25 7 53 12 62 12 16 0 114 75 121 92 2 5 11 15 19 23 8 9 16
21 17 28 2 6 9 26 16 42 18 42 20 114 4 153 -7 17 -11 32 -8 32 2 0 -2 12 -10
28 -19 35 -81 102 -95 102 -6 0 -11 4 -11 10 0 5 -18 14 -40 20 -21 6 -42 15
-45 20 -11 18 -137 11 -175 -10z"/>
<path d="M656 2985 c-8 -8 -21 -15 -29 -15 -8 0 -24 -9 -37 -20 -13 -11 -26
-20 -29 -20 -4 0 -15 -15 -26 -32 -10 -18 -25 -39 -32 -46 -7 -7 -14 -25 -14
-40 -3 -55 -1 -118 4 -137 3 -11 6 -22 6 -25 1 -9 34 -50 52 -67 60 -54 72
-63 94 -63 14 0 25 -4 25 -10 0 -5 17 -10 38 -10 43 0 142 27 142 38 0 4 16
16 35 26 19 11 33 21 30 24 -3 3 4 12 15 19 11 8 18 19 15 24 -4 5 -1 9 4 9 6
0 11 8 11 18 0 10 3 22 6 25 14 13 11 94 -3 137 -26 78 -104 163 -132 146 -4
-3 -16 3 -26 14 -23 25 -125 29 -149 5z"/>
<path d="M2910 2987 c-58 -27 -120 -73 -120 -89 0 -10 -7 -18 -16 -18 -8 0
-13 -4 -9 -9 3 -5 0 -15 -7 -23 -17 -18 -21 -34 -23 -93 -2 -70 43 -163 96
-196 22 -13 39 -27 39 -31 0 -5 9 -8 20 -8 10 0 31 -5 45 -12 29 -13 127 6
146 29 6 7 17 13 23 13 11 0 46 30 74 64 6 8 13 26 15 38 1 13 6 26 12 30 5 4
9 39 8 77 -1 56 -6 77 -24 103 -13 18 -28 36 -34 40 -5 4 -6 8 -1 8 11 0 -45
50 -59 51 -5 1 -15 1 -21 0 -5 0 -20 8 -32 19 -24 23 -90 26 -132 7z"/>
<path d="M2137 2513 c-3 -2 -144 -4 -315 -4 -249 0 -314 -3 -337 -15 -15 -8
-32 -14 -37 -14 -5 0 -16 -7 -24 -15 -9 -8 -12 -15 -8 -15 4 0 -2 -8 -13 -17
-11 -10 -23 -31 -27 -48 -8 -34 -10 -919 -3 -950 3 -11 6 -23 6 -27 1 -5 8 -8
17 -8 8 0 13 -4 10 -9 -9 -13 30 -52 53 -54 12 -1 21 -5 21 -9 0 -4 13 -8 29
-8 22 0 32 -6 37 -22 5 -13 7 -27 5 -33 -1 -5 -3 -142 -3 -303 0 -217 3 -296
12 -307 7 -8 9 -15 5 -15 -4 0 -2 -7 5 -15 7 -8 9 -15 5 -15 -5 0 1 -8 13 -18
11 -9 31 -26 44 -37 21 -18 37 -20 209 -20 220 0 232 3 289 85 l25 35 2 305
c1 168 2 315 2 327 1 16 9 24 29 29 70 15 136 74 145 128 3 17 6 233 6 479 1
484 1 476 -53 530 -37 37 -134 76 -149 60z"/>
<path d="M451 2439 c-25 -3 -47 -11 -49 -17 -2 -7 -10 -12 -17 -12 -7 0 -27
-16 -44 -36 l-32 -36 4 -411 c3 -227 6 -418 7 -425 4 -17 74 -72 91 -72 8 -1
23 -6 34 -13 20 -12 21 -21 20 -252 0 -132 2 -259 6 -282 8 -60 53 -120 98
-133 48 -13 311 -13 311 0 0 6 3 9 8 9 22 -4 42 2 42 12 0 7 9 19 20 29 40 34
46 81 43 340 -2 267 2 290 47 290 33 0 71 33 94 79 15 31 16 79 14 438 l-3
403 -30 28 c-71 66 -60 64 -352 66 -148 0 -288 -2 -312 -5z"/>
<path d="M2655 2428 c-16 -6 -38 -21 -47 -32 -10 -12 -23 -27 -30 -35 -16 -20
-20 -104 -21 -476 0 -308 2 -360 19 -387 18 -29 58 -68 68 -66 23 3 66 -22 66
-39 1 -10 2 -130 4 -268 1 -137 5 -260 9 -272 11 -42 56 -89 96 -101 47 -15
297 -16 306 -2 3 6 17 10 31 10 13 0 24 4 24 9 0 5 6 16 14 23 40 41 43 64 44
341 1 290 2 292 56 300 38 5 82 49 93 94 7 29 11 742 4 810 -1 16 -82 94 -92
88 -4 -3 -10 -1 -14 5 -9 14 -590 12 -630 -2z"/>
</g>
</svg>
