<?xml version="1.0" standalone="no"?>
<!DOCTYPE svg PUBLIC "-//W3C//DTD SVG 20010904//EN"
 "http://www.w3.org/TR/2001/REC-SVG-20010904/DTD/svg10.dtd">
<svg version="1.0" xmlns="http://www.w3.org/2000/svg"
 width="398.000000pt" height="398.000000pt" viewBox="0 0 398.000000 398.000000"
 preserveAspectRatio="xMidYMid meet">
<metadata>
Created by potrace 1.11, written by Peter Selinger 2001-2013
</metadata>
<g transform="translate(0.000000,398.000000) scale(0.100000,-0.100000)"
fill="#000000" stroke="none">
<path d="M0 1990 l0 -1990 1990 0 1990 0 0 1990 0 1990 -1990 0 -1990 0 0
-1990z m2105 1155 c88 -42 137 -101 160 -194 34 -131 -29 -271 -150 -333 -50
-26 -166 -36 -221 -18 -109 35 -192 141 -201 254 -19 231 206 389 412 291z
m-1164 -147 c51 -15 114 -70 140 -121 12 -22 24 -67 26 -99 21 -221 -244 -354
-411 -206 -86 75 -110 190 -62 294 26 56 84 111 137 130 44 16 121 17 170 2z
m2259 -9 c60 -27 98 -64 126 -124 49 -103 22 -222 -66 -297 -126 -108 -322
-57 -380 99 -28 76 -26 138 8 203 60 119 197 171 312 119z m-823 -482 c36 -19
69 -55 82 -90 7 -19 11 -190 11 -501 l0 -472 -29 -46 c-28 -43 -55 -60 -138
-84 -10 -3 -13 -75 -13 -321 0 -298 -1 -319 -20 -359 -12 -24 -39 -54 -62 -70
l-41 -29 -181 0 c-151 0 -186 3 -212 17 -43 23 -81 71 -94 116 -6 22 -10 163
-10 342 l0 306 -46 12 c-57 15 -108 64 -123 117 -14 52 -15 905 -1 957 11 40
75 104 112 113 39 8 122 10 435 8 243 -1 307 -5 330 -16z m-1168 -80 c71 -47
71 -46 71 -487 0 -420 -1 -431 -53 -478 -14 -13 -42 -30 -64 -37 l-38 -13 -5
-284 c-6 -314 -6 -318 -73 -358 -28 -18 -51 -20 -188 -20 -145 0 -158 2 -189
23 -19 12 -43 38 -54 57 -20 33 -21 52 -22 309 l-2 274 -38 13 c-20 7 -54 29
-73 49 l-36 35 -3 418 c-2 400 -1 418 17 449 23 37 59 62 104 74 17 4 161 7
318 6 l286 -2 42 -28z m2236 10 c17 -11 42 -35 55 -55 l25 -35 3 -386 c2 -271
0 -398 -9 -428 -14 -50 -51 -88 -104 -106 l-40 -14 -5 -279 c-5 -256 -7 -282
-25 -313 -36 -61 -70 -71 -238 -71 -170 0 -202 9 -239 69 -22 35 -23 45 -26
316 l-3 281 -45 13 c-34 10 -54 24 -75 54 l-30 41 3 423 3 423 37 36 c22 23
51 40 75 45 21 4 166 7 323 6 257 -2 288 -4 315 -20z"/>
</g>
</svg>
